<?xml version="1.0" encoding="UTF-8"?><svg id="Layer_3" xmlns="http://www.w3.org/2000/svg" viewBox="0 0 16.5 16.5"><defs><style>.cls-1{fill:#3597d3;}.cls-2{fill:none;stroke:#3597d3;stroke-linecap:round;stroke-linejoin:round;stroke-width:.75px;}</style></defs><path class="cls-1" d="M5.1,8.44h.38v.66h.7v-.66h.38v1.72h-.38v-.74h-.7v.74h-.38v-1.72Z"/><path class="cls-1" d="M7.44,8.76h-.52v-.32h1.41v.32h-.51v1.4h-.38v-1.4Z"/><path class="cls-1" d="M9.18,8.76h-.52v-.32h1.41v.32h-.51v1.4h-.38v-1.4Z"/><path class="cls-1" d="M10.44,8.44h.77c.11,0,.2.02.27.05.08.03.14.07.18.12.05.05.08.11.1.18.02.07.03.13.03.2s-.01.14-.03.2c-.02.07-.06.12-.1.18-.05.05-.11.09-.18.12-.08.03-.17.05-.27.05h-.4v.62h-.38v-1.72ZM10.82,9.25h.29s.09,0,.13,0,.08-.02.11-.04c.03-.02.05-.04.07-.08.02-.03.03-.08.03-.13s0-.1-.03-.13c-.02-.03-.04-.06-.07-.08-.03-.02-.07-.03-.11-.04s-.08,0-.13,0h-.29v.52Z"/><path class="cls-1" d="M12.6,9.26h-.38v-.37h.38v.37ZM12.22,9.74h.38v.37h-.38v-.37Z"/><path class="cls-1" d="M13.56,8.35h.27l-.67,1.8h-.27l.67-1.8Z"/><path class="cls-1" d="M14.63,8.35h.27l-.67,1.8h-.27l.67-1.8Z"/><path class="cls-2" d="M10.89,13.22c-1.39,1.39-3.45,2.04-5.5,1.55-3.15-.75-5.09-3.92-4.34-7.07.6-2.49,2.7-4.23,5.12-4.47"/><path class="cls-2" d="M6.16,3.23c.64-.06,1.29-.02,1.95.13,1.18.28,2.19.9,2.96,1.74"/><path class="cls-2" d="M9.42,3.83c.42.44.39.9.34,1.11-.17.7-1.15,1.07-2.19.82s-1.67-1.01-1.58-1.72c.06-.5.46-.73.95-.84"/><path class="cls-2" d="M4.85,6.09c-.56-.7-.82-1.55-.64-2.32"/><path class="cls-2" d="M4,8.97c-1.05-.94-1.72-2.24-1.79-3.63"/><path class="cls-2" d="M8.59,13.08c-.94.19-1.89.18-2.76-.02-2.35-.56-4.43-2.58-4.79-5.36"/><path class="cls-2" d="M7.77,13.28c-.28.7-.58,1.12-.9,1.63"/><path class="cls-2" d="M4,14.25c-.09-.94-.02-2.13.21-3.42"/><path class="cls-2" d="M2.14,12.69c-.12-1.07-.16-2.31.11-3.44.55-2.31,1.82-4.03,3.68-4.91"/><rect class="cls-2" x="4.22" y="7.33" width="11.36" height="3.91" rx=".94" ry=".94"/></svg>